<?xml version="1.0" standalone="no"?>
<!DOCTYPE svg PUBLIC "-//W3C//DTD SVG 20010904//EN"
 "http://www.w3.org/TR/2001/REC-SVG-20010904/DTD/svg10.dtd">
<svg version="1.0" xmlns="http://www.w3.org/2000/svg"
 width="500.000000pt" height="500.000000pt" viewBox="0 0 500.000000 500.000000"
 preserveAspectRatio="xMidYMid meet">

<g transform="translate(0.000000,500.000000) scale(0.100000,-0.100000)"
fill="#000000" stroke="none">
<path d="M2320 4994 c-19 -2 -78 -9 -130 -15 -886 -101 -1680 -716 -2014
-1559 -120 -304 -171 -578 -171 -920 0 -353 54 -632 181 -945 127 -309 305
-576 549 -821 398 -399 878 -634 1460 -716 119 -17 504 -16 620 1 292 43 549
121 790 241 758 376 1258 1077 1376 1930 18 125 18 507 0 625 -84 575 -320
1054 -711 1445 -145 146 -246 229 -405 333 -308 201 -634 324 -1015 382 -100
15 -454 28 -530 19z m-1461 -2035 c71 -16 146 -58 197 -110 42 -43 46 -51 37
-72 -14 -30 -111 -147 -122 -147 -5 0 -30 17 -56 39 -76 63 -163 78 -242 42
-111 -51 -155 -224 -90 -350 29 -57 105 -101 175 -101 62 0 164 29 158 45 -2
7 -8 60 -11 117 l-7 104 133 -2 134 -1 6 -244 c3 -134 4 -246 2 -249 -2 -2
-39 3 -81 12 -73 14 -82 14 -172 -4 -121 -25 -258 -21 -340 12 -121 48 -223
156 -260 277 -27 89 -28 237 0 324 47 155 179 280 323 309 60 11 165 11 216
-1z m3823 -86 c-8 -107 -10 -671 -3 -768 l5 -60 -110 0 -109 0 -3 31 -3 32
-50 -34 c-58 -39 -100 -49 -175 -41 -157 16 -257 143 -257 327 0 112 28 186
93 251 88 88 234 105 328 39 l45 -31 -4 163 -4 163 105 11 c58 6 115 12 127
13 22 1 22 0 15 -96z m-2459 -216 c64 -32 120 -90 150 -156 31 -66 31 -216 0
-282 -30 -66 -86 -124 -151 -156 -50 -25 -68 -28 -152 -28 -84 0 -102 3 -152
28 -116 57 -173 158 -172 302 1 154 79 266 217 311 69 23 193 13 260 -19z
m-739 -15 l6 -39 67 34 c50 25 78 33 108 31 l40 -3 -4 -110 c-1 -60 -5 -113
-8 -117 -2 -5 -34 -8 -71 -8 -113 0 -112 2 -112 -211 l0 -180 -117 3 -118 3
-1 235 c-1 138 -6 254 -12 280 -22 87 -23 86 81 103 139 22 134 23 141 -21z
m2000 -6 l7 -44 68 40 c85 49 158 60 225 34 54 -21 103 -73 111 -118 3 -18 5
-139 3 -268 l-3 -235 -104 -3 c-66 -2 -108 1 -115 8 -7 7 -11 76 -11 193 0
191 -6 220 -45 232 -29 9 -74 -3 -99 -26 -20 -19 -21 -29 -21 -202 0 -129 -4
-187 -12 -195 -13 -13 -183 -17 -212 -6 -14 5 -16 35 -16 231 0 123 -5 256
-11 294 -6 39 -9 72 -7 74 3 4 180 31 214 34 18 1 23 -6 28 -43z m-764 -41
c-3 -33 -5 -117 -4 -187 0 -101 4 -131 17 -152 29 -44 89 -47 138 -7 23 19 24
24 29 213 l5 193 120 0 120 0 -2 -305 c-1 -168 -3 -308 -3 -312 0 -5 -51 -8
-114 -8 l-114 0 -6 44 -7 44 -70 -41 c-148 -85 -296 -47 -334 87 -21 75 -28
237 -16 354 16 148 10 143 139 140 l107 -3 -5 -60z"/>
<path d="M4269 2475 c-37 -20 -63 -84 -56 -137 7 -55 61 -108 108 -108 67 0
119 57 119 130 0 97 -91 159 -171 115z"/>
<path d="M2018 2474 c-83 -44 -75 -198 12 -234 76 -31 150 27 150 119 0 101
-81 159 -162 115z"/>
</g>
</svg>
